<?xml version="1.0" standalone="no"?>
<!DOCTYPE svg PUBLIC "-//W3C//DTD SVG 20010904//EN"
 "http://www.w3.org/TR/2001/REC-SVG-20010904/DTD/svg10.dtd">
<svg version="1.0" xmlns="http://www.w3.org/2000/svg"
 width="509.000000pt" height="339.000000pt" viewBox="0 0 509.000000 339.000000"
 preserveAspectRatio="xMidYMid meet">

<g transform="translate(0.000000,339.000000) scale(0.100000,-0.100000)"
fill="#000000" stroke="none">
<path d="M0 1695 l0 -1695 2545 0 2545 0 0 1695 0 1695 -900 0 c-512 0 -899
-4 -896 -9 3 -5 -1 -11 -9 -15 -8 -3 -19 2 -24 12 -8 14 -10 15 -15 2 -2 -8
-7 -22 -9 -30 -3 -8 -6 -3 -6 11 -1 21 -6 27 -26 27 -13 0 -22 -4 -19 -9 3 -5
-2 -9 -11 -9 -9 0 -14 3 -12 8 3 4 -19 8 -47 8 -39 1 -53 -2 -53 -12 0 -8 4
-14 9 -14 4 0 8 -5 8 -11 0 -5 -4 -7 -10 -4 -5 3 -10 0 -10 -9 0 -8 5 -16 11
-18 5 -2 12 -19 13 -39 2 -20 7 -51 11 -69 5 -23 4 -30 -4 -26 -6 4 -11 3 -11
-3 0 -5 5 -12 10 -14 6 -3 5 -4 -2 -3 -7 2 -12 11 -11 22 1 10 -7 29 -18 42
-12 15 -17 33 -13 47 3 13 0 26 -6 30 -9 6 -11 -2 -8 -29 2 -20 0 -36 -4 -36
-4 0 -8 -9 -8 -21 0 -11 -4 -17 -10 -14 -6 3 -10 -4 -10 -17 0 -19 2 -20 10
-8 11 17 2 -45 -10 -69 -4 -7 -4 -31 1 -54 4 -22 5 -47 3 -54 -15 -48 -15 -48
-24 -33 -9 13 -10 13 -10 0 -1 -11 -4 -10 -15 4 -15 20 -15 20 -15 0 0 -15 -4
-13 -20 11 l-20 30 0 -39 c0 -70 -11 -31 -16 60 -3 49 -9 126 -13 172 -5 60
-4 81 4 78 7 -2 12 1 12 8 0 8 -14 13 -34 13 -24 0 -33 -5 -32 -16 0 -11 2
-12 6 -3 12 29 23 -4 22 -66 -1 -59 -2 -63 -10 -34 -5 17 -14 32 -19 32 -11 0
-13 -10 -10 -57 1 -26 -2 -32 -14 -27 -20 8 -22 103 -3 123 10 11 7 12 -13 7
-24 -7 -24 -6 3 9 15 9 27 23 26 33 0 14 -2 14 -9 -3 -5 -11 -9 -18 -10 -15
-7 23 -7 41 0 45 4 2 5 15 3 28 l-5 24 -174 1 c-145 0 -174 -2 -174 -14 0 -8
-4 -14 -10 -14 -5 0 -7 7 -4 15 5 13 -139 15 -1210 15 l-1216 0 0 -1695z
m2645 1672 c-12 -7 -19 -20 -17 -29 2 -9 -2 -27 -8 -39 -8 -14 -8 -19 -1 -15
6 4 14 21 19 39 5 20 15 33 28 35 11 2 15 0 8 -5 -26 -19 -25 -51 2 -72 l27
-21 -29 6 c-16 3 -38 7 -49 8 -17 2 -19 9 -16 47 2 42 2 43 -14 24 -16 -20
-16 -20 -6 2 10 19 28 27 66 31 6 1 1 -4 -10 -11z m89 -12 c-4 -8 -8 -15 -10
-15 -2 0 -4 7 -4 15 0 8 4 15 10 15 5 0 7 -7 4 -15z m399 8 c-21 -8 -15 -23
10 -24 12 0 16 -3 9 -6 -10 -4 -9 -9 5 -20 10 -8 12 -12 6 -8 -9 4 -13 -2 -13
-20 0 -31 -27 -65 -35 -43 -2 7 -5 39 -7 71 -3 52 -1 57 17 56 11 0 14 -3 8
-6z m-723 -13 c0 -5 -12 -10 -27 -9 l-28 1 25 8 c14 4 26 8 28 9 1 1 2 -3 2
-9z m160 0 c0 -5 -8 -10 -17 -10 -15 0 -16 2 -3 10 19 12 20 12 20 0z m699
-22 c1 13 5 21 10 17 6 -3 8 -14 6 -25 -2 -11 0 -20 6 -20 5 0 9 -7 9 -16 0
-8 7 -22 15 -30 13 -14 15 -13 15 6 0 12 -4 18 -10 15 -5 -3 -10 -1 -10 4 0 6
8 11 18 11 15 0 18 -6 14 -31 -4 -24 -8 -30 -24 -26 -12 3 -23 -2 -31 -14 -6
-10 -15 -19 -19 -19 -11 0 -1 72 12 80 8 5 8 10 2 14 -16 10 -32 -19 -34 -63
-1 -23 -6 -45 -11 -48 -6 -4 -8 18 -5 56 2 33 1 61 -4 61 -4 0 -8 8 -7 18 0
10 3 12 6 5 8 -21 23 -15 24 10 1 21 1 21 9 -3 8 -25 8 -25 9 -2z m74 5 c-7
-2 -19 -2 -25 0 -7 3 -2 5 12 5 14 0 19 -2 13 -5z m-136 -40 c-3 -10 -5 -4 -5
12 0 17 2 24 5 18 2 -7 2 -21 0 -30z m-22 -63 c-4 -34 -8 -60 -10 -58 -8 11
-13 98 -5 93 6 -3 10 4 10 16 0 12 3 20 6 16 3 -3 3 -33 -1 -67z m-810 50 c3
-5 1 -10 -4 -10 -6 0 -11 5 -11 10 0 6 2 10 4 10 3 0 8 -4 11 -10z m84 1 c9
-6 6 -8 -13 -8 -14 0 -23 3 -20 8 7 11 15 11 33 0z m281 5 c0 -3 -4 -8 -10
-11 -5 -3 -10 -1 -10 4 0 6 5 11 10 11 6 0 10 -2 10 -4z m-278 -69 c19 -5 19
-7 5 -21 -8 -9 -17 -20 -19 -25 -1 -5 -21 -12 -44 -15 l-40 -6 0 50 c0 29 3
45 8 37 6 -9 10 -9 18 3 5 8 10 12 11 8 1 -5 3 -12 4 -18 1 -5 3 -17 4 -25 0
-8 9 -15 18 -15 12 0 14 3 6 11 -5 5 -7 22 -4 37 5 24 6 24 9 6 2 -12 12 -24
24 -27z m245 27 c-3 -3 -12 -4 -19 -1 -8 3 -5 6 6 6 11 1 17 -2 13 -5z m37 0
c9 -3 16 -11 16 -16 0 -7 -5 -6 -13 1 -11 8 -16 4 -24 -22 -12 -41 -5 -107 13
-114 8 -3 14 -14 14 -25 0 -10 -5 -16 -10 -13 -6 4 -8 11 -5 16 4 5 2 9 -4 9
-5 0 -9 -13 -9 -28 1 -15 -6 -41 -15 -57 -15 -27 -16 -28 -17 -7 0 12 5 22 10
22 6 0 10 18 8 43 -2 35 -6 43 -20 39 -14 -3 -16 3 -14 40 2 23 1 37 -1 30 -3
-6 -8 -10 -12 -7 -5 2 -6 -6 -4 -19 3 -13 0 -27 -6 -30 -7 -5 -11 3 -12 21 0
24 -1 25 -8 8 -8 -19 -9 -18 -13 5 -5 25 -5 25 -7 -2 -1 -34 -28 -38 -34 -5
-2 12 -4 2 -4 -23 0 -32 2 -39 8 -25 4 12 8 14 8 6 1 -8 8 -22 17 -32 14 -16
14 -18 -5 -24 -13 -4 -21 -15 -21 -28 0 -44 -19 0 -21 48 -3 92 -1 105 21 105
11 0 19 3 19 8 -4 25 2 42 14 35 6 -4 17 -8 22 -9 6 -1 19 -5 30 -9 15 -5 16
-4 6 3 -12 8 -11 11 5 15 10 2 6 3 -11 1 -16 -1 -24 0 -16 3 11 5 11 7 0 14
-8 5 1 6 23 2 29 -4 39 -2 44 11 7 18 7 18 28 10z m-505 -94 c4 -3 4 -20 -1
-39 -5 -19 -13 -30 -16 -24 -4 6 -17 13 -29 17 -18 6 -23 15 -23 39 0 18 -3
42 -6 55 -8 28 22 31 42 5 12 -17 14 -16 15 7 1 14 4 8 6 -15 3 -22 8 -42 12
-45z m342 33 c-8 -15 -10 -15 -11 -2 0 17 10 32 18 25 2 -3 -1 -13 -7 -23z
m-85 -33 c9 0 12 5 8 13 -5 9 -4 9 6 0 19 -18 4 -66 -19 -58 -16 5 -18 0 -14
-50 3 -46 2 -54 -11 -49 -10 4 -16 1 -16 -10 0 -10 6 -13 15 -10 8 4 15 1 15
-5 0 -6 9 -11 19 -11 11 0 23 -4 26 -10 9 -15 25 -12 25 5 0 10 10 15 30 15
30 0 40 -13 20 -25 -6 -4 -8 -11 -5 -16 4 -5 2 -9 -4 -9 -5 0 -11 6 -14 13 -8
22 -14 3 -19 -55 -3 -32 -1 -58 4 -58 4 0 8 -5 8 -11 0 -5 -4 -7 -10 -4 -16
10 -12 -15 5 -31 13 -14 15 -11 15 20 0 20 4 36 9 36 10 0 27 -87 19 -95 -3
-3 -32 -8 -66 -11 l-62 -7 1 63 c1 34 4 58 8 52 9 -14 26 -2 27 21 1 10 -5 17
-17 17 -10 0 -19 5 -19 10 0 6 8 10 18 10 12 0 17 8 17 29 l0 30 -60 -2 -60
-2 2 40 2 40 -10 -43 c-14 -60 -26 -44 -28 39 -1 40 -5 77 -8 83 -4 6 0 5 9
-1 8 -7 18 -10 21 -6 4 3 7 1 7 -6 0 -7 4 -10 9 -6 5 3 12 -3 14 -12 4 -14 5
-13 6 5 1 21 21 33 21 12 0 -5 4 -10 10 -10 5 0 13 24 17 53 4 29 9 42 11 30
2 -13 10 -23 18 -23z m-337 -47 l-1 -78 -9 55 c-7 49 -3 100 7 100 2 0 3 -35
3 -77z m391 67 c0 -5 -4 -10 -10 -10 -5 0 -10 5 -10 10 0 6 5 10 10 10 6 0 10
-4 10 -10z m231 -58 c28 4 29 3 29 -38 0 -24 -4 -46 -10 -49 -5 -3 -10 3 -10
14 0 11 -4 22 -9 25 -5 4 -7 -4 -4 -16 4 -19 3 -20 -6 -8 -17 23 -13 40 9 40
30 0 24 18 -7 22 -20 2 -28 9 -29 23 -1 17 0 17 3 1 4 -14 12 -17 34 -14z
m327 -59 c-3 -85 -22 -104 -25 -26 -2 34 0 44 7 33 7 -11 10 -3 10 28 0 23 2
42 5 42 3 0 4 -35 3 -77z m225 40 c-7 -3 -13 -14 -13 -26 l0 -21 -20 22 c-26
28 -26 29 13 29 17 0 26 -2 20 -4z m-815 -34 c3 -12 2 -12 -6 0 -8 11 -10 11
-15 0 -4 -10 -6 -8 -6 4 -1 21 21 18 27 -4z m19 -1 c-3 -8 -6 -5 -6 6 -1 11 2
17 5 13 3 -3 4 -12 1 -19z m149 -42 c-5 -28 -11 -44 -18 -40 -5 4 -7 20 -4 38
4 17 8 39 9 48 1 11 5 14 10 9 5 -5 6 -30 3 -55z m496 4 c2 -22 0 -40 -4 -40
-5 0 -8 18 -8 40 0 22 2 40 4 40 2 0 6 -18 8 -40z m55 -27 c-3 -10 -5 -2 -5
17 0 19 2 27 5 18 2 -10 2 -26 0 -35z m-1007 17 c-8 -5 -19 -10 -25 -10 -5 0
-3 5 5 10 8 5 20 10 25 10 6 0 3 -5 -5 -10z m410 -9 c12 -23 13 -31 3 -31 -17
1 -45 29 -38 39 10 17 23 13 35 -8z m915 0 c3 -5 1 -12 -5 -16 -5 -3 -10 1
-10 9 0 18 6 21 15 7z m-248 -23 c-3 -8 -6 -5 -6 6 -1 11 2 17 5 13 3 -3 4
-12 1 -19z m-537 -49 c0 -5 -7 -6 -15 -3 -8 4 -15 13 -15 21 0 13 3 13 15 3 8
-7 15 -16 15 -21z m-490 -10 c0 7 5 9 10 6 6 -4 4 -12 -5 -21 -8 -9 -15 -22
-15 -30 0 -8 -4 -14 -10 -14 -5 0 -10 -7 -10 -17 0 -9 -3 -14 -6 -11 -3 3 -6
31 -7 61 l-2 56 23 -21 c13 -13 22 -16 22 -9z m69 -1 c-9 -16 -9 -23 0 -26 6
-2 11 -24 10 -55 l-1 -52 -10 53 c-5 28 -14 52 -19 52 -5 0 -9 7 -9 16 0 8 5
12 10 9 6 -3 10 1 10 9 0 9 5 16 10 16 7 0 7 -8 -1 -22z m148 0 c-3 -8 -6 -5
-6 6 -1 11 2 17 5 13 3 -3 4 -12 1 -19z m-758 -58 c0 -8 -6 0 -14 19 -8 18
-15 36 -15 40 1 13 29 -45 29 -59z m288 28 c-3 -7 -5 -2 -5 12 0 14 2 19 5 13
2 -7 2 -19 0 -25z m567 17 c-4 -8 -8 -15 -10 -15 -2 0 -4 7 -4 15 0 8 4 15 10
15 5 0 7 -7 4 -15z m166 -55 c5 0 8 -18 7 -40 -1 -25 -4 -35 -10 -27 -5 7 -7
-1 -4 -20 2 -19 -1 -33 -7 -33 -7 0 -10 30 -7 92 3 51 7 78 9 61 2 -18 7 -33
12 -33z m-883 28 c-3 -8 -6 -5 -6 6 -1 11 2 17 5 13 3 -3 4 -12 1 -19z m148
-18 c3 -5 1 -10 -4 -10 -6 0 -11 5 -11 10 0 6 2 10 4 10 3 0 8 -4 11 -10z
m-45 -31 c0 -6 -4 -7 -10 -4 -5 3 -10 11 -10 16 0 6 5 7 10 4 6 -3 10 -11 10
-16z m490 -15 c0 -21 -4 -33 -10 -29 -17 10 -11 65 7 65 2 0 3 -16 3 -36z
m-43 -6 c-3 -7 -5 -2 -5 12 0 14 2 19 5 13 2 -7 2 -19 0 -25z m-452 -39 c-6
-29 -15 -37 -15 -12 0 17 8 33 16 33 2 0 1 -10 -1 -21z m-227 -54 c-3 -3 -9 2
-12 12 -6 14 -5 15 5 6 7 -7 10 -15 7 -18z m293 -5 c5 0 9 -5 9 -11 0 -5 -4
-8 -9 -4 -5 3 -12 -3 -14 -12 -4 -14 -5 -13 -6 4 0 12 -6 25 -12 29 -8 4 -7 9
2 15 9 6 15 3 17 -6 2 -8 8 -15 13 -15z m239 -4 c0 -15 3 -17 9 -8 7 12 56 42
68 42 3 0 3 -10 0 -22 -3 -13 -7 -75 -8 -138 -1 -69 -7 -118 -13 -122 -7 -5
-6 -8 3 -8 11 0 11 -3 0 -17 -8 -9 -13 -18 -11 -20 5 -8 1 -24 -5 -20 -5 3 -7
-25 -6 -61 1 -52 0 -62 -8 -43 -5 14 -9 32 -8 40 1 9 0 48 -1 86 -2 52 -4 62
-9 40 -6 -23 -9 -11 -15 55 -5 47 -13 88 -18 91 -5 3 -11 35 -15 72 -5 63 -5
66 16 60 13 -3 21 -13 21 -27z m-160 -83 c-8 -14 -9 -5 -6 37 6 77 9 82 13 28
2 -26 -1 -56 -7 -65z m-119 44 c-8 -8 -11 -3 -11 19 1 25 2 27 11 11 8 -14 8
-22 0 -30z m-408 26 c-7 -2 -19 -2 -25 0 -7 3 -2 5 12 5 14 0 19 -2 13 -5z
m474 -38 c0 -8 -4 -12 -9 -9 -5 3 -6 10 -3 15 9 13 12 11 12 -6z m-349 -40
c-3 -3 -9 2 -12 12 -6 14 -5 15 5 6 7 -7 10 -15 7 -18z m279 3 c-3 -8 -6 -5
-6 6 -1 11 2 17 5 13 3 -3 4 -12 1 -19z m530 -65 c-3 -10 -5 -2 -5 17 0 19 2
27 5 18 2 -10 2 -26 0 -35z m-467 12 c0 -14 -4 -25 -9 -25 -4 0 -6 11 -3 25 2
14 6 25 8 25 2 0 4 -11 4 -25z m197 -12 c-3 -10 -5 -4 -5 12 0 17 2 24 5 18 2
-7 2 -21 0 -30z m230 -5 c-3 -7 -5 -2 -5 12 0 14 2 19 5 13 2 -7 2 -19 0 -25z
m-580 -10 c-3 -7 -5 -2 -5 12 0 14 2 19 5 13 2 -7 2 -19 0 -25z m170 -85 c-2
-16 -4 -5 -4 22 0 28 2 40 4 28 2 -13 2 -35 0 -50z m-317 53 c0 -3 -4 -8 -10
-11 -5 -3 -10 -1 -10 4 0 6 5 11 10 11 6 0 10 -2 10 -4z m237 -18 c-3 -8 -6
-5 -6 6 -1 11 2 17 5 13 3 -3 4 -12 1 -19z m-217 -17 c0 -6 -4 -12 -8 -15 -5
-3 -9 1 -9 9 0 8 4 15 9 15 4 0 8 -4 8 -9z m27 -73 c-3 -7 -5 -2 -5 12 0 14 2
19 5 13 2 -7 2 -19 0 -25z m292 -35 c0 -43 -3 -61 -8 -48 -7 19 -3 115 5 115
2 0 4 -30 3 -67z m-572 -10 c-3 -10 -5 -2 -5 17 0 19 2 27 5 18 2 -10 2 -26 0
-35z m263 27 c0 -5 -4 -10 -10 -10 -5 0 -10 5 -10 10 0 6 5 10 10 10 6 0 10
-4 10 -10z m497 -22 c-3 -7 -5 -2 -5 12 0 14 2 19 5 13 2 -7 2 -19 0 -25z
m-470 -30 c-3 -8 -6 -5 -6 6 -1 11 2 17 5 13 3 -3 4 -12 1 -19z m-277 -18 c0
-5 -5 -10 -11 -10 -5 0 -7 5 -4 10 3 6 8 10 11 10 2 0 4 -4 4 -10z m237 -22
c-3 -8 -6 -5 -6 6 -1 11 2 17 5 13 3 -3 4 -12 1 -19z m-590 -40 c-2 -13 -4 -5
-4 17 -1 22 1 32 4 23 2 -10 2 -28 0 -40z m320 -10 c-3 -7 -5 -2 -5 12 0 14 2
19 5 13 2 -7 2 -19 0 -25z m-70 -20 c-3 -8 -6 -5 -6 6 -1 11 2 17 5 13 3 -3 4
-12 1 -19z m0 -80 c-3 -7 -5 -2 -5 12 0 14 2 19 5 13 2 -7 2 -19 0 -25z m60
-95 c-3 -10 -5 -2 -5 17 0 19 2 27 5 18 2 -10 2 -26 0 -35z m1723 -383 c0 -5
-2 -10 -4 -10 -3 0 -8 5 -11 10 -3 6 -1 10 4 10 6 0 11 -4 11 -10z m-193 -22
c-3 -8 -6 -5 -6 6 -1 11 2 17 5 13 3 -3 4 -12 1 -19z m133 -10 c0 -19 -16 -5
-17 14 -2 18 0 20 7 8 5 -8 10 -18 10 -22z m-293 -50 c-2 -13 -4 -3 -4 22 0
25 2 35 4 23 2 -13 2 -33 0 -45z m578 -25 c4 -14 2 -23 -4 -23 -6 0 -11 5 -11
12 0 6 -3 9 -6 5 -4 -3 -4 -14 0 -23 11 -30 36 3 29 38 -4 22 -3 29 5 24 7 -4
12 -18 12 -32 0 -14 7 -27 15 -30 8 -4 15 -10 15 -14 0 -9 -26 -7 -36 3 -11
10 -24 -2 -18 -17 3 -9 -2 -13 -17 -12 -12 0 -24 7 -27 14 -2 8 2 10 15 6 15
-6 16 -4 6 7 -14 14 -18 61 -6 73 9 8 19 -3 28 -31z m-393 -18 c3 -14 1 -28
-3 -31 -5 -3 -9 9 -9 25 0 38 6 40 12 6z m168 -1 c0 -8 -4 -12 -10 -9 -5 3
-10 10 -10 16 0 5 5 9 10 9 6 0 10 -7 10 -16z m148 -13 c-3 -23 -1 -28 11 -24
10 4 8 0 -4 -10 -26 -20 -29 -16 -21 28 8 42 20 48 14 6z m-212 -18 c-11 -11
-17 4 -9 23 7 18 8 18 11 1 2 -10 1 -21 -2 -24z m64 -2 c0 -5 -6 -13 -13 -19
-10 -8 -13 -6 -13 9 0 10 6 19 13 19 7 0 13 -4 13 -9z m-344 -52 c7 -61 7 -71
5 -99 -5 -50 -20 12 -20 84 -1 76 7 84 15 15z m-503 21 c3 -11 1 -20 -4 -20
-5 0 -9 9 -9 20 0 11 2 20 4 20 2 0 6 -9 9 -20z m672 10 c3 -6 -4 -10 -17 -10
-18 0 -20 2 -8 10 19 12 18 12 25 0z m128 -10 c3 -11 0 -23 -6 -27 -7 -3 -9
-2 -4 2 4 5 0 17 -10 27 -14 16 -14 18 -1 18 9 0 18 -9 21 -20z m-450 -71 c-5
-5 -6 11 -3 34 4 41 5 41 8 8 2 -18 0 -37 -5 -42z m339 29 c-2 -21 -8 -38 -13
-38 -8 0 -5 30 7 69 8 24 11 7 6 -31z m88 3 c0 -30 -4 -40 -20 -44 -18 -5 -20
0 -19 36 0 35 2 38 9 20 12 -30 18 -29 12 2 -2 15 0 25 7 25 6 0 11 -17 11
-39z m-705 -6 c-2 -45 -10 -53 -13 -14 -2 26 3 49 12 49 1 0 1 -16 1 -35z
m587 -5 c-6 -39 -9 -38 -14 4 -2 22 0 32 7 29 6 -2 9 -17 7 -33z m-202 22 c19
-9 25 -55 11 -79 -8 -15 -11 -9 -12 27 -1 38 -2 41 -9 20 -6 -19 -8 -20 -9 -6
-1 10 -9 25 -18 32 -17 13 -17 13 2 13 11 0 27 -3 35 -7z m-458 -32 c3 -17 1
-33 -4 -36 -4 -3 -8 11 -8 30 0 44 6 47 12 6z m290 -5 c3 -29 1 -35 -14 -35
-11 0 -18 7 -18 20 0 11 -4 20 -10 20 -5 0 -10 5 -10 10 0 20 25 4 31 -20 6
-23 7 -22 8 8 1 42 8 41 13 -3z m150 -26 c5 -3 3 -9 -6 -12 -12 -5 -16 0 -15
21 0 16 3 21 6 12 3 -8 10 -18 15 -21z m135 -1 c-3 -7 -5 -2 -5 12 0 14 2 19
5 13 2 -7 2 -19 0 -25z m-537 -3 c0 -14 -3 -25 -7 -25 -5 0 -8 11 -8 25 0 14
3 25 8 25 4 0 7 -11 7 -25z m210 3 c0 -18 -2 -20 -9 -8 -6 8 -7 18 -5 22 9 14
14 9 14 -14z m84 7 c3 -8 1 -15 -3 -15 -5 0 -11 7 -15 15 -3 8 -1 15 3 15 5 0
11 -7 15 -15z m216 5 c0 -5 -4 -10 -10 -10 -5 0 -10 5 -10 10 0 6 5 10 10 10
6 0 10 -4 10 -10z m274 -15 c-4 -10 0 -13 15 -10 16 3 21 -1 21 -18 0 -18 -2
-19 -10 -7 -5 8 -10 10 -10 5 0 -6 4 -15 8 -20 5 -6 3 -21 -4 -35 l-14 -25 -1
25 c-1 14 -2 31 -2 37 1 7 -3 10 -8 7 -5 -3 -9 9 -9 25 0 17 4 31 10 31 5 0 7
-7 4 -15z m-1037 -10 c0 -8 -4 -12 -9 -9 -5 3 -6 10 -3 15 9 13 12 11 12 -6z
m910 -55 c3 -8 5 -18 5 -22 -1 -5 3 -8 8 -8 13 0 13 -51 -1 -70 -9 -12 -10
-11 -6 8 3 15 0 22 -9 22 -8 0 -15 10 -15 23 -1 17 -2 18 -6 4 -2 -9 -9 -15
-14 -11 -5 3 -8 2 -7 -3 1 -4 -4 -19 -11 -32 -8 -14 -11 -38 -7 -59 3 -20 1
-42 -6 -49 -6 -8 -7 -13 0 -13 5 0 8 -19 5 -47 -7 -69 -15 -85 -23 -43 l-7 35
-2 -32 c-1 -42 -21 -54 -21 -14 0 17 -5 31 -11 31 -6 0 -9 -9 -6 -20 3 -11 1
-20 -4 -20 -5 0 -9 18 -9 39 0 22 -5 43 -10 46 -7 4 -9 -12 -6 -44 3 -28 1
-53 -4 -56 -12 -7 -18 26 -19 112 -1 43 -3 114 -6 158 -3 58 -2 69 4 40 5 -22
6 -46 4 -55 -4 -13 -4 -13 6 0 9 12 11 11 11 -7 0 -13 5 -23 11 -23 6 0 9 6 6
13 -3 6 -8 19 -11 28 -5 10 -2 16 8 16 8 0 14 -5 13 -10 -1 -5 8 -11 21 -13
17 -3 22 1 23 19 l2 22 4 -22 c2 -13 9 -23 15 -23 6 0 8 11 6 25 -3 13 -2 22
2 20 11 -7 19 41 9 56 -8 14 -1 39 12 39 5 0 9 -10 10 -22 0 -20 2 -19 12 7
l12 30 3 -30 c1 -16 6 -37 9 -45z m99 35 c-1 -24 2 -35 11 -35 16 0 17 -12 1
-28 -9 -9 -9 -12 0 -12 8 0 12 -15 11 -42 -1 -24 -4 -33 -6 -20 -2 12 -10 34
-18 48 l-13 25 -6 -26 c-4 -14 -11 -25 -17 -25 -6 0 -7 4 -4 10 3 5 0 7 -7 5
-10 -4 -14 5 -16 27 -2 26 0 30 9 18 8 -12 9 -8 4 14 -4 21 -1 33 13 47 11 10
23 15 26 12 3 -4 6 -1 6 5 0 7 2 12 5 12 2 0 3 -16 1 -35z m-732 -5 c-6 -6
-10 -3 -10 10 0 13 4 16 10 10 7 -7 7 -13 0 -20z m643 8 c-3 -8 -6 -5 -6 6 -1
11 2 17 5 13 3 -3 4 -12 1 -19z m180 -10 c-3 -8 -6 -5 -6 6 -1 11 2 17 5 13 3
-3 4 -12 1 -19z m146 0 c3 -10 1 -16 -4 -13 -4 3 -18 -4 -29 -15 -24 -24 -34
-22 -24 4 5 14 9 15 15 4 6 -9 9 -5 9 13 0 30 26 36 33 7z m88 -38 l-9 -45 1
53 c0 29 4 49 9 44 4 -4 4 -28 -1 -52z m-645 -20 c1 -73 -13 -80 -18 -9 -2 39
5 69 17 69 1 0 1 -27 1 -60z m430 32 c12 -7 11 -39 -2 -50 -4 -4 -5 0 -2 9 4
9 2 22 -2 29 -6 10 -13 4 -24 -21 -9 -19 -13 -23 -10 -10 5 18 3 22 -7 16 -8
-5 -5 1 5 13 21 24 25 25 42 14z m-487 -185 l-21 -20 7 22 c4 13 2 21 -5 21
-15 0 -7 74 10 94 7 9 10 23 6 31 -3 9 -2 13 4 10 6 -3 11 2 12 12 1 10 4 -20
5 -66 4 -75 2 -86 -18 -104z m538 136 c-3 -10 -5 -2 -5 17 0 19 2 27 5 18 2
-10 2 -26 0 -35z m180 15 c-3 -7 -5 -2 -5 12 0 14 2 19 5 13 2 -7 2 -19 0 -25z
m-887 7 c0 -8 -2 -15 -4 -15 -2 0 -6 7 -10 15 -3 8 -1 15 4 15 6 0 10 -7 10
-15z m40 0 c0 -8 -4 -15 -10 -15 -5 0 -10 7 -10 15 0 8 5 15 10 15 6 0 10 -7
10 -15z m260 -5 c0 -5 -5 -10 -11 -10 -5 0 -7 5 -4 10 3 6 8 10 11 10 2 0 4
-4 4 -10z m-190 -77 c0 -2 -6 -1 -12 3 -10 6 -10 4 -2 -7 7 -8 9 -29 6 -49
l-5 -35 -14 30 c-14 29 -14 29 -10 3 2 -16 0 -25 -7 -22 -7 3 -11 25 -10 57 3
65 3 66 14 42 7 -16 9 -14 10 15 l1 35 14 -34 c8 -18 15 -35 15 -38z m225 57
c3 -5 1 -10 -4 -10 -6 0 -11 5 -11 10 0 6 2 10 4 10 3 0 8 -4 11 -10z m389
-29 c-4 -17 -9 -30 -11 -27 -3 2 -2 19 2 36 4 17 9 30 11 27 2 -2 1 -18 -2
-36z m-682 4 c3 -14 -1 -33 -9 -42 -13 -16 -14 -16 -10 10 2 15 0 30 -5 33 -4
3 -6 10 -3 15 11 16 23 10 27 -16z m-64 -71 c-11 -10 -15 -10 -25 1 -10 11 -9
15 7 20 13 4 21 16 22 33 1 22 2 21 5 -7 3 -20 -1 -39 -9 -47z m648 29 c-10
-26 -18 -8 -9 23 5 21 8 24 11 11 2 -10 1 -25 -2 -34z m-774 15 c-7 -7 -12 -8
-12 -2 0 14 12 26 19 19 2 -3 -1 -11 -7 -17z m643 -20 c-2 -24 -4 -53 -4 -66
-1 -13 -5 -20 -11 -17 -5 3 -10 -1 -10 -10 0 -9 5 -13 10 -10 6 3 10 -1 10
-10 0 -9 -4 -13 -10 -10 -5 3 -10 0 -10 -7 0 -10 -2 -10 -8 -1 -5 7 -7 26 -6
43 1 16 -1 30 -5 30 -4 0 -8 6 -8 14 0 9 8 13 23 10 18 -3 21 0 17 16 -3 11
-9 18 -13 15 -5 -3 -3 6 3 20 18 37 27 30 22 -17z m181 3 c-13 -20 -26 -11
-26 16 0 25 1 26 16 11 9 -9 13 -21 10 -27z m-1049 -48 c-3 -10 -5 -2 -5 17 0
19 2 27 5 18 2 -10 2 -26 0 -35z m218 38 c3 -5 1 -12 -5 -16 -5 -3 -10 1 -10
9 0 18 6 21 15 7z m829 -36 c3 -9 0 -15 -9 -15 -8 0 -15 7 -15 15 0 8 4 15 9
15 5 0 11 -7 15 -15z m-791 -10 c4 -8 3 -16 -1 -19 -4 -3 -9 4 -9 15 -2 23 3
25 10 4z m67 -10 c0 -14 6 -28 13 -30 13 -5 16 -79 4 -92 -4 -4 -7 2 -6 13 6
60 -12 102 -24 57 -2 -10 -4 3 -3 29 1 49 16 69 16 23z m34 10 c-7 -16 -24
-21 -24 -6 0 8 7 13 27 20 1 1 0 -6 -3 -14z m735 -57 c0 -10 -4 -18 -11 -18
-6 0 -9 2 -6 6 3 3 2 20 -2 39 -4 19 -5 37 -1 40 6 7 17 -32 20 -67z m-68 38
c8 5 9 3 5 -5 -5 -7 -14 -10 -21 -7 -8 3 -16 0 -19 -7 -2 -7 -5 -1 -5 12 -1
19 1 21 14 11 8 -6 20 -8 26 -4z m-581 -15 c0 -6 -4 -12 -8 -15 -5 -3 -9 1 -9
9 0 8 4 15 9 15 4 0 8 -4 8 -9z m487 -13 c-3 -8 -6 -5 -6 6 -1 11 2 17 5 13 3
-3 4 -12 1 -19z m133 -13 c0 -15 -6 -25 -14 -25 -11 0 -12 5 -3 25 15 31 17
31 17 0z m-800 5 c13 -8 13 -10 -2 -10 -9 0 -20 5 -23 10 -8 13 5 13 25 0z
m256 -47 c-11 -11 -17 4 -9 23 7 18 8 18 11 1 2 -10 1 -21 -2 -24z m-266 -4
c0 -11 -4 -18 -10 -14 -5 3 -7 12 -3 20 7 21 13 19 13 -6z m34 6 c-4 -8 -11
-12 -16 -9 -6 4 -5 10 3 15 19 12 19 11 13 -6z m23 -7 c-3 -8 -6 -5 -6 6 -1
11 2 17 5 13 3 -3 4 -12 1 -19z m553 -15 c0 -22 -2 -25 -10 -13 -13 20 -13 40
0 40 6 0 10 -12 10 -27z m186 0 c-10 -10 -19 5 -10 18 6 11 8 11 12 0 2 -7 1
-15 -2 -18z m21 -10 c-3 -10 -5 -4 -5 12 0 17 2 24 5 18 2 -7 2 -21 0 -30z
m-1053 1 c3 -8 2 -12 -4 -9 -6 3 -10 10 -10 16 0 14 7 11 14 -7z m295 -26 c0
-16 -2 -18 -6 -8 -3 8 -11 18 -17 22 -7 5 -4 8 7 8 11 0 17 -7 16 -22z m210 0
c0 -22 -1 -22 -9 -3 -7 14 -9 -4 -7 -57 1 -42 -1 -74 -5 -71 -5 2 -8 38 -8 79
0 59 3 74 15 74 9 0 15 -9 14 -22z m-639 8 c0 -3 -4 -8 -10 -11 -5 -3 -10 -1
-10 4 0 6 5 11 10 11 6 0 10 -2 10 -4z m398 -27 c-3 -8 -7 -3 -11 10 -4 17 -3
21 5 13 5 -5 8 -16 6 -23z m569 -36 c-3 -10 -5 -4 -5 12 0 17 2 24 5 18 2 -7
2 -21 0 -30z m-330 -5 c-3 -7 -5 -2 -5 12 0 14 2 19 5 13 2 -7 2 -19 0 -25z
m-240 -20 c-3 -8 -6 -5 -6 6 -1 11 2 17 5 13 3 -3 4 -12 1 -19z m-197 -120 c0
-4 -7 -8 -15 -8 -8 0 -15 4 -15 8 0 5 7 9 15 9 8 0 15 -4 15 -9z m-23 -55 c-3
-10 -5 -4 -5 12 0 17 2 24 5 18 2 -7 2 -21 0 -30z"/>
<path d="M3132 3280 c0 -14 2 -19 5 -12 2 6 2 18 0 25 -3 6 -5 1 -5 -13z"/>
<path d="M2691 3134 c0 -11 3 -14 6 -6 3 7 2 16 -1 19 -3 4 -6 -2 -5 -13z"/>
<path d="M2170 3200 c0 -5 5 -10 10 -10 6 0 10 -9 10 -20 0 -11 5 -20 10 -20
13 0 13 3 -2 35 -11 25 -28 34 -28 15z"/>
<path d="M2450 3055 c0 -14 4 -25 9 -25 4 0 6 11 3 25 -2 14 -6 25 -8 25 -2 0
-4 -11 -4 -25z"/>
<path d="M2410 3001 c0 -6 5 -13 10 -16 6 -3 10 1 10 9 0 9 -4 16 -10 16 -5 0
-10 -4 -10 -9z"/>
<path d="M2541 2914 c0 -11 3 -14 6 -6 3 7 2 16 -1 19 -3 4 -6 -2 -5 -13z"/>
<path d="M2531 2853 c0 -29 2 -33 8 -18 7 18 4 55 -5 55 -2 0 -4 -17 -3 -37z"/>
<path d="M2516 2794 c-3 -9 -2 -23 4 -32 7 -14 9 -10 10 16 0 35 -5 41 -14 16z"/>
<path d="M2262 2690 c0 -14 2 -19 5 -12 2 6 2 18 0 25 -3 6 -5 1 -5 -13z"/>
<path d="M2300 2700 c0 -5 5 -10 10 -10 6 0 10 5 10 10 0 6 -4 10 -10 10 -5 0
-10 -4 -10 -10z"/>
<path d="M2280 2671 c0 -10 26 -9 36 2 4 4 -2 7 -14 7 -12 0 -22 -4 -22 -9z"/>
<path d="M2310 2625 c9 -11 9 -15 1 -15 -7 0 -9 -4 -6 -10 3 -5 2 -10 -4 -10
-5 0 -12 6 -14 13 -3 6 -6 -4 -6 -24 -1 -21 5 -42 13 -49 8 -6 12 -18 9 -26
-10 -26 5 -14 20 16 9 18 12 32 6 36 -5 3 -7 20 -3 38 4 26 2 35 -12 40 -14 5
-15 4 -4 -9z"/>
<path d="M2961 1195 c-14 -14 -23 -26 -20 -28 2 -1 11 -8 20 -15 14 -11 16 -9
11 14 -4 21 -2 25 9 19 8 -5 11 -5 7 0 -4 4 -3 14 3 22 19 22 -5 13 -30 -12z"/>
<path d="M2909 1173 c0 -10 -2 -31 -4 -46 -3 -22 -1 -26 9 -18 7 6 10 25 8 46
-4 37 -12 47 -13 18z"/>
<path d="M2941 1064 c0 -11 3 -14 6 -6 3 7 2 16 -1 19 -3 4 -6 -2 -5 -13z"/>
<path d="M3132 1285 c0 -16 2 -22 5 -12 2 9 2 23 0 30 -3 6 -5 -1 -5 -18z"/>
<path d="M2780 1220 c0 -8 -3 -26 -6 -40 -5 -24 -4 -24 11 4 12 20 14 31 6 39
-8 8 -11 7 -11 -3z"/>
<path d="M2791 1154 c0 -11 3 -14 6 -6 3 7 2 16 -1 19 -3 4 -6 -2 -5 -13z"/>
<path d="M2878 3385 c-2 -3 -2 -20 0 -37 4 -27 6 -30 12 -13 6 16 8 14 12 -13
3 -19 0 -39 -6 -45 -14 -14 -14 -32 -2 -44 5 -5 6 -3 2 5 -11 19 15 14 31 -5
8 -10 12 -13 9 -8 -2 6 -1 17 5 25 6 11 9 12 9 2 0 -7 4 -10 10 -7 9 6 16 -14
23 -70 2 -18 5 -9 6 21 1 36 -4 55 -15 65 -21 17 -56 20 -50 3 3 -8 0 -11 -9
-8 -8 3 -11 12 -8 20 3 9 19 13 48 11 42 -2 43 -2 49 33 12 71 12 70 -57 70
-35 0 -66 -2 -69 -5z m45 -12 c-7 -2 -19 -2 -25 0 -7 3 -2 5 12 5 14 0 19 -2
13 -5z m56 -42 c10 -7 10 -10 1 -16 -7 -4 -15 -3 -19 3 -3 5 -15 12 -26 15
-17 4 -16 5 5 6 14 0 31 -3 39 -8z"/>
<path d="M2850 3344 c0 -14 4 -23 10 -19 6 3 10 15 10 26 0 10 -4 19 -10 19
-5 0 -10 -12 -10 -26z"/>
<path d="M3030 3360 c0 -5 5 -10 10 -10 6 0 10 5 10 10 0 6 -4 10 -10 10 -5 0
-10 -4 -10 -10z"/>
<path d="M3061 3274 c0 -11 3 -14 6 -6 3 7 2 16 -1 19 -3 4 -6 -2 -5 -13z"/>
<path d="M2962 3200 c0 -19 2 -27 5 -17 2 9 2 25 0 35 -3 9 -5 1 -5 -18z"/>
<path d="M2950 3119 c0 -6 -9 -9 -20 -6 -11 3 -20 1 -20 -4 0 -5 11 -9 25 -9
16 0 25 6 25 15 0 8 -2 15 -5 15 -3 0 -5 -5 -5 -11z"/>
<path d="M2900 3060 c0 -11 4 -20 9 -20 6 0 9 9 8 20 -1 11 -5 20 -9 20 -4 0
-8 -9 -8 -20z"/>
</g>
</svg>
